<svg width="1200" height="1200" viewBox="0 0 1200 1200" fill="none" xmlns="http://www.w3.org/2000/svg">
<path d="M600 1200C931.371 1200 1200 931.371 1200 600C1200 268.629 931.371 0 600 0C268.629 0 0 268.629 0 600C0 931.371 268.629 1200 600 1200Z" fill="white" fill-opacity="0.2"/>
<path d="M600 1100C876.142 1100 1100 876.142 1100 600C1100 323.858 876.142 100 600 100C323.858 100 100 323.858 100 600C100 876.142 323.858 1100 600 1100Z" fill="#FFFCFC" fill-opacity="0.2"/>
<path d="M600 900C765.685 900 900 765.685 900 600C900 434.315 765.685 300 600 300C434.315 300 300 434.315 300 600C300 765.685 434.315 900 600 900Z" fill="#40DDB6" fill-opacity="0.15"/>
<path d="M600 800C710.457 800 800 710.457 800 600C800 489.543 710.457 400 600 400C489.543 400 400 489.543 400 600C400 710.457 489.543 800 600 800Z" fill="#40DDB6" fill-opacity="0.15"/>
<path d="M600 700C655.228 700 700 655.228 700 600C700 544.772 655.228 500 600 500C544.772 500 500 544.772 500 600C500 655.228 544.772 700 600 700Z" fill="#40DDB6" fill-opacity="0.15"/>
</svg>
