<?xml version="1.0" encoding="utf-8"?>
<!-- Generator: Adobe Illustrator 24.0.0, SVG Export Plug-In . SVG Version: 6.00 Build 0)  -->
<svg version="1.1" id="图层_1" xmlns="http://www.w3.org/2000/svg" xmlns:xlink="http://www.w3.org/1999/xlink" x="0px" y="0px"
	 viewBox="0 0 250 100" style="enable-background:new 0 0 250 100;" xml:space="preserve">
<style type="text/css">
	.st0{fill:none;}
	.st1{fill:url(#SVGID_1_);}
	.st2{fill:url(#SVGID_2_);}
	.st3{fill:url(#SVGID_3_);}
	.st4{fill:url(#SVGID_4_);}
	.st5{fill:url(#SVGID_5_);}
	.st6{fill:url(#SVGID_6_);}
	.st7{fill:url(#SVGID_7_);}
	.st8{fill:url(#SVGID_8_);}
	.st9{fill:#46C451;}
</style>
<g>
	<rect x="0" y="0" class="st0" width="250" height="100"/>
	<g>
		<g>
			<linearGradient id="SVGID_1_" gradientUnits="userSpaceOnUse" x1="69.0719" y1="81.2148" x2="51.2915" y2="63.4344">
				<stop  offset="0" style="stop-color:#54D358"/>
				<stop  offset="0.59" style="stop-color:#41BE4E"/>
				<stop  offset="1" style="stop-color:#39B54A"/>
			</linearGradient>
			<path class="st1" d="M66.12,76.41c-1.49-0.34-2.95-0.9-4.33-1.7c-5.16-2.99-7.94-8.51-7.68-14.08c-1.54,3.36-3.47,6.51-5.76,9.39
				c0.15,0.26,0.31,0.51,0.48,0.77c3.59,5.46,9.58,8.38,15.66,8.28c3.36-0.06,6.75-1.03,9.76-3.02c0,0,0,0,0,0
				C71.66,76.87,68.85,77.03,66.12,76.41z"/>
			<linearGradient id="SVGID_2_" gradientUnits="userSpaceOnUse" x1="16.0723" y1="70.7706" x2="16.0723" y2="57.7232">
				<stop  offset="0" style="stop-color:#3AB74B"/>
				<stop  offset="0.2323" style="stop-color:#59BD4A"/>
				<stop  offset="0.5682" style="stop-color:#81C549"/>
				<stop  offset="0.8359" style="stop-color:#99CA48"/>
				<stop  offset="1" style="stop-color:#A2CC48"/>
			</linearGradient>
			<path class="st2" d="M19.75,57.72v13.04c-0.05,0-0.09,0-0.13,0c-2.13,0-4.15-0.92-5.55-2.54c-0.86-0.98-1.43-2.15-1.67-3.42
				v-7.08H19.75z"/>
			<linearGradient id="SVGID_3_" gradientUnits="userSpaceOnUse" x1="25.9657" y1="70.2604" x2="25.9657" y2="51.0853">
				<stop  offset="0" style="stop-color:#3AB74B"/>
				<stop  offset="0.2323" style="stop-color:#59BD4A"/>
				<stop  offset="0.5682" style="stop-color:#81C549"/>
				<stop  offset="0.8359" style="stop-color:#99CA48"/>
				<stop  offset="1" style="stop-color:#A2CC48"/>
			</linearGradient>
			<path class="st3" d="M29.64,51.09v15.22c-2.08,1.39-4.28,2.61-6.57,3.63l-0.79,0.33V51.09H29.64z"/>
			<linearGradient id="SVGID_4_" gradientUnits="userSpaceOnUse" x1="35.859" y1="64.4822" x2="35.859" y2="42.3504">
				<stop  offset="0" style="stop-color:#3AB74B"/>
				<stop  offset="0.2323" style="stop-color:#59BD4A"/>
				<stop  offset="0.5682" style="stop-color:#81C549"/>
				<stop  offset="0.8359" style="stop-color:#99CA48"/>
				<stop  offset="1" style="stop-color:#A2CC48"/>
			</linearGradient>
			<path class="st4" d="M39.54,42.35v14.98c-1.4,1.72-2.94,3.33-4.6,4.84c-0.89,0.81-1.82,1.58-2.75,2.31V42.35H39.54z"/>
			<g>
				<linearGradient id="SVGID_5_" gradientUnits="userSpaceOnUse" x1="41.0612" y1="17.2181" x2="41.0612" y2="73.5591">
					<stop  offset="0" style="stop-color:#54D358"/>
					<stop  offset="0.59" style="stop-color:#41BE4E"/>
					<stop  offset="1" style="stop-color:#39B54A"/>
				</linearGradient>
				<path class="st5" d="M51.11,17.22c0.25,0.25,7.72,4.93,10.6,14.95c0,0-3.87-3.95-7.05-5.42c0.21,1.14,0.3,1.73,0.44,2.86
					c0.27,2.2,0.4,4.38,0.38,6.53c-0.03,3.04-0.33,6.02-0.9,8.92c-0.68,3.49-1.74,6.86-3.13,10.06c0,0.01-0.01,0.02-0.01,0.03
					C43.13,72.3,20.42,73.56,20.42,73.56c1.12-0.09,2.21-0.36,3.24-0.8c3.31-1.43,6.49-3.25,9.48-5.46
					c1.27-0.94,2.49-1.95,3.69-3.03c8.92-8.09,14.09-18.78,15.39-29.87c0.43-3.7,0.43-7.45,0-11.16c-0.13-1.05-0.28-2.1-0.47-3.14
					c-0.1-0.53-0.2-1.07-0.32-1.6c-0.07-0.3-0.1-0.8-0.24-1.13L51.11,17.22z"/>
				<linearGradient id="SVGID_6_" gradientUnits="userSpaceOnUse" x1="51.4229" y1="68.9256" x2="9.3116" y2="68.9256">
					<stop  offset="0" style="stop-color:#54D358"/>
					<stop  offset="0.59" style="stop-color:#41BE4E"/>
					<stop  offset="1" style="stop-color:#39B54A"/>
				</linearGradient>
				<path class="st6" d="M9.49,64.44c0.22,2.17,1.11,4.12,2.45,5.65c2.04,2.35,5.13,3.73,8.48,3.47c0,0,22.71-1.26,31.01-18.41
					c-1.41,3.25-3.18,6.33-5.25,9.19c-5.75,7.94-13.86,14.14-23.45,17.49c-0.1,0.03-0.2,0.07-0.31,0.1c-0.01,0-0.02,0.01-0.03,0.01
					c-1.13,0.39-2.3,0.64-3.5,0.76C9.57,76.99,8.9,66.21,9.45,59.77c-0.1,1.41-0.1,2.84,0.01,4.28c0,0.01,0,0.03,0,0.04
					c0,0.03,0,0.06,0.01,0.09c0,0.08,0.01,0.15,0.02,0.22C9.49,64.42,9.49,64.43,9.49,64.44z"/>
				<linearGradient id="SVGID_7_" gradientUnits="userSpaceOnUse" x1="4.3723" y1="77.7749" x2="31.5026" y2="30.7838">
					<stop  offset="0" style="stop-color:#54D358"/>
					<stop  offset="0.59" style="stop-color:#41BE4E"/>
					<stop  offset="1" style="stop-color:#39B54A"/>
				</linearGradient>
				<path class="st7" d="M6.57,43.91c19.26-14.08,28.41-12.3,32.69-8.36c-2.58-2.21-6.11-3.07-9.44-2.27
					c-0.99,0.23-1.96,0.62-2.89,1.15c-3.24,1.49-6.14,3.53-8.61,5.98c-3.37,3.35-5.94,7.48-7.44,12.03
					c-0.23,0.69-0.43,1.4-0.61,2.11c0,0,0,0.01-0.01,0.03c-0.01,0.03-0.02,0.07-0.03,0.13c-0.01,0.04-0.02,0.1-0.03,0.16
					c-0.03,0.13-0.07,0.29-0.11,0.48c-0.32,1.44-0.53,2.91-0.63,4.41C8.9,66.21,9.57,76.99,18.88,82.7
					c-0.37,0.04-0.74,0.07-1.11,0.07c-5.2,0.17-9.97-2.23-12.99-6.11c-1.11-1.43-1.99-3.06-2.56-4.83
					c-0.34-1.04-0.57-2.14-0.69-3.27c0-0.01,0-0.02,0-0.03c-0.14-1.4-0.21-2.82-0.21-4.26C1.31,56.88,3.22,49.94,6.57,43.91z"/>
				<linearGradient id="SVGID_8_" gradientUnits="userSpaceOnUse" x1="21.1627" y1="28.5563" x2="32.5542" y2="48.287">
					<stop  offset="0" style="stop-color:#54D358"/>
					<stop  offset="0.59" style="stop-color:#41BE4E"/>
					<stop  offset="1" style="stop-color:#39B54A"/>
				</linearGradient>
				<path class="st8" d="M44.93,29.24c0.73,0.82,1.06,1.94,0.87,3.02c0,0,0,0.01,0,0.02c-0.59,3.42-1.55,6.79-2.89,10.04
					c0,0,0-0.04-0.02-0.11c-0.18-1.34-0.62-2.67-1.34-3.91c-0.6-1.03-1.34-1.92-2.19-2.67c-0.03-0.03-0.06-0.05-0.09-0.08
					c-4.28-3.94-13.42-5.71-32.69,8.36c4.75-8.56,12.4-15.28,21.63-18.83C34.27,22.81,40.87,24.67,44.93,29.24z"/>
			</g>
		</g>
		<g>
			<path class="st9" d="M74.25,60.97c0-0.23,0.07-0.5,0.2-0.82l8.68-20.52c0.23-0.5,0.54-0.9,0.94-1.19
				c0.4-0.29,0.87-0.44,1.41-0.44h0.34c0.86,0,1.55,0.37,2.08,1.12c0.09,0.16,0.18,0.33,0.27,0.51l8.68,20.52
				c0.14,0.34,0.2,0.61,0.2,0.82c0,0.54-0.19,1-0.56,1.38c-0.37,0.37-0.83,0.56-1.38,0.56c-0.57,0-1.03-0.18-1.39-0.54
				c-0.18-0.18-0.33-0.41-0.44-0.68l-2.11-5.04H80.14l-2.11,5.04c-0.16,0.39-0.4,0.69-0.73,0.9c-0.33,0.22-0.7,0.32-1.11,0.32
				c-0.57,0-1.03-0.19-1.4-0.58C74.43,61.95,74.25,61.5,74.25,60.97z M89.67,53.01l-4.02-9.63l-4.02,9.63H89.67z"/>
			<path class="st9" d="M101.24,60.97V40.66c0-0.7,0.26-1.33,0.78-1.87c0.52-0.52,1.13-0.78,1.84-0.78h1.12
				c0.7,0,1.32,0.26,1.84,0.78c0.25,0.25,0.45,0.56,0.61,0.92l7.35,18.31l7.35-18.34c0.23-0.5,0.57-0.9,1.02-1.21
				c0.45-0.31,0.93-0.46,1.43-0.46h1.12c0.7,0,1.32,0.26,1.84,0.78c0.52,0.54,0.78,1.17,0.78,1.87v20.32c0,0.54-0.19,1-0.56,1.38
				c-0.37,0.37-0.83,0.56-1.36,0.56c-0.53,0-1-0.19-1.41-0.58c-0.39-0.39-0.58-0.84-0.58-1.36V43.72l-7.08,17.49
				c-0.2,0.5-0.54,0.91-1.02,1.22s-0.99,0.48-1.53,0.48c-0.77,0-1.43-0.28-1.97-0.85c-0.25-0.23-0.44-0.51-0.58-0.85l-7.08-17.49
				v17.25c0,0.52-0.19,0.98-0.58,1.36c-0.41,0.39-0.88,0.58-1.41,0.58c-0.53,0-0.99-0.19-1.36-0.56
				C101.42,61.98,101.24,61.52,101.24,60.97z"/>
			<path class="st9" d="M144.32,60.8V40.15c0-0.52,0.19-0.99,0.58-1.4c0.39-0.39,0.84-0.58,1.36-0.58h8.03
				c2.77,0,4.88,0.73,6.33,2.18c1.13,1.13,1.7,2.6,1.7,4.39c0,1.77-0.57,3.22-1.7,4.36c-0.32,0.32-0.66,0.59-1.02,0.82
				c1.11,0.48,2.02,1.12,2.72,1.94c0.88,1.04,1.33,2.31,1.33,3.81c0,2.31-0.79,4.08-2.38,5.31c-1.57,1.18-3.82,1.77-6.77,1.77h-8.24
				c-0.54,0-1-0.19-1.38-0.56S144.32,61.35,144.32,60.8z M158.54,45.03c0-0.96-0.4-1.73-1.19-2.3c-0.79-0.57-1.89-0.85-3.3-0.85
				h-5.79h-0.03v0.03v6.53h5.24c2.06,0,3.47-0.37,4.22-1.12C158.26,46.76,158.54,46,158.54,45.03z M157.56,58.63
				c1.52-0.5,2.28-1.52,2.28-3.06c0-0.93-0.27-1.66-0.82-2.18c-0.86-0.88-2.46-1.33-4.8-1.33h-5.99V59c0,0.02,0.01,0.03,0.03,0.03
				h5.92C155.57,59.03,156.69,58.9,157.56,58.63z"/>
			<path class="st9" d="M170.96,46.68c1.47-1.63,3.12-2.45,4.93-2.45h0.17c0.54,0,1,0.19,1.36,0.58c0.36,0.39,0.54,0.84,0.54,1.36
				c0,0.54-0.19,0.99-0.58,1.34c-0.39,0.35-0.85,0.53-1.4,0.53h-0.17c-1.57,0-2.92,0.57-4.05,1.7c-0.29,0.3-0.57,0.62-0.82,0.99
				v10.24c0,0.52-0.19,0.98-0.58,1.36c-0.41,0.39-0.88,0.58-1.41,0.58c-0.53,0-0.99-0.19-1.36-0.56c-0.37-0.37-0.56-0.83-0.56-1.38
				v-14.6c0-0.52,0.19-0.99,0.58-1.4c0.39-0.39,0.84-0.58,1.38-0.58c0.53,0,0.99,0.19,1.38,0.58c0.39,0.39,0.58,0.85,0.58,1.4V46.68
				z"/>
			<path class="st9" d="M180.59,59.99c-1.38-1.72-2.08-3.85-2.08-6.36c0-1.81,0.37-3.44,1.12-4.87c0.77-1.45,1.85-2.57,3.23-3.37
				c1.38-0.77,2.97-1.16,4.76-1.16c1.79,0,3.37,0.39,4.73,1.16c1.41,0.82,2.49,1.94,3.25,3.37c0.76,1.43,1.14,3.06,1.14,4.9
				c0,1.84-0.37,3.46-1.12,4.87c-0.79,1.48-1.88,2.6-3.27,3.39c-1.38,0.78-2.97,1.17-4.76,1.17c-2.63,0-4.78-0.83-6.43-2.48
				C180.97,60.42,180.77,60.21,180.59,59.99z M192.06,50.36c-0.68-1.23-1.7-2-3.06-2.31c-0.43-0.11-0.82-0.17-1.17-0.17
				c-0.35,0-0.63,0.01-0.83,0.03c-0.2,0.02-0.42,0.06-0.65,0.1c-1.43,0.32-2.48,1.1-3.16,2.35c-0.5,0.88-0.75,2-0.75,3.33
				c0,1.34,0.25,2.42,0.75,3.23c0.27,0.45,0.56,0.83,0.85,1.12c0.29,0.29,0.63,0.54,1.02,0.75c0.77,0.43,1.63,0.65,2.59,0.65
				c0.86,0,1.7-0.2,2.52-0.61c0.82-0.41,1.47-1.05,1.96-1.94c0.49-0.88,0.73-1.99,0.73-3.3C192.84,52.27,192.58,51.2,192.06,50.36z"
				/>
			<path class="st9" d="M200.26,60.97V38.89c0-0.52,0.19-0.99,0.58-1.4c0.39-0.39,0.84-0.58,1.38-0.58c0.53,0,0.99,0.19,1.38,0.58
				c0.39,0.39,0.58,0.85,0.58,1.4v13l7.42-6.91c0.43-0.34,0.86-0.51,1.29-0.51c0.59,0,1.05,0.17,1.39,0.51
				c0.34,0.36,0.51,0.83,0.51,1.4c0,0.45-0.23,0.94-0.68,1.46l-4.66,4.12l5.96,7.89c0.27,0.41,0.41,0.79,0.41,1.16
				c0,0.57-0.19,1.03-0.58,1.38c-0.39,0.35-0.85,0.53-1.4,0.53c-0.41,0-0.79-0.13-1.16-0.37c-0.16-0.11-0.31-0.25-0.44-0.41
				l-5.58-7.66l-2.48,2.28v4.22c0,0.52-0.19,0.98-0.58,1.36c-0.41,0.39-0.88,0.58-1.41,0.58c-0.53,0-0.99-0.19-1.36-0.56
				C200.45,61.98,200.26,61.52,200.26,60.97z"/>
			<path class="st9" d="M217.45,53.66c0-1.61,0.31-3.14,0.92-4.59c0.63-1.5,1.61-2.68,2.93-3.54c1.32-0.86,2.88-1.29,4.7-1.29
				c1.79,0,3.32,0.41,4.59,1.23c1.23,0.79,2.18,1.87,2.88,3.23c0.69,1.36,1.04,2.87,1.04,4.53c0,0.54-0.19,1.01-0.58,1.4
				c-0.36,0.36-0.83,0.54-1.4,0.54h-11.06c0.23,1.32,0.77,2.33,1.63,3.03c0.93,0.79,2.21,1.19,3.85,1.19c1.25,0,2.37-0.18,3.37-0.54
				c0.34-0.14,0.69-0.29,1.05-0.48c0.2-0.11,0.46-0.17,0.78-0.17c0.5,0,0.92,0.17,1.26,0.51s0.51,0.75,0.51,1.23
				c0,0.66-0.37,1.2-1.12,1.63c-0.98,0.52-1.91,0.91-2.79,1.16c-0.88,0.25-2,0.37-3.34,0.37c-2.9,0-5.17-0.83-6.79-2.5
				C218.26,58.92,217.45,56.61,217.45,53.66z M230.55,51.82c0.02,0,0.03-0.01,0.03-0.03c-0.09-0.84-0.34-1.54-0.75-2.11
				c-0.45-0.66-1.03-1.16-1.72-1.5c-0.69-0.34-1.39-0.51-2.09-0.51c-0.7,0-1.42,0.16-2.14,0.48c-1.07,0.52-1.8,1.37-2.21,2.55
				c-0.11,0.34-0.19,0.71-0.24,1.12H230.55z"/>
			<path class="st9" d="M241.68,46.68c1.47-1.63,3.12-2.45,4.93-2.45h0.17c0.54,0,1,0.19,1.36,0.58c0.36,0.39,0.54,0.84,0.54,1.36
				c0,0.54-0.19,0.99-0.58,1.34c-0.39,0.35-0.85,0.53-1.4,0.53h-0.17c-1.57,0-2.92,0.57-4.05,1.7c-0.29,0.3-0.57,0.62-0.82,0.99
				v10.24c0,0.52-0.19,0.98-0.58,1.36c-0.41,0.39-0.88,0.58-1.41,0.58c-0.53,0-0.99-0.19-1.36-0.56c-0.37-0.37-0.56-0.83-0.56-1.38
				v-14.6c0-0.52,0.19-0.99,0.58-1.4c0.39-0.39,0.84-0.58,1.38-0.58c0.53,0,0.99,0.19,1.38,0.58c0.39,0.39,0.58,0.85,0.58,1.4V46.68
				z"/>
		</g>
	</g>
</g>
</svg>
